<svg width="40" height="40" viewBox="0 0 42 42" fill="none" xmlns="http://www.w3.org/2000/svg">
<path d="M0.5 21C0.5 9.67816 9.67816 0.5 21 0.5C32.3218 0.5 41.5 9.67816 41.5 21C41.5 32.3218 32.3218 41.5 21 41.5C9.67816 41.5 0.5 32.3218 0.5 21Z" fill="white"/>
<path d="M28 17H14" stroke="#2760F4" stroke-width="1.5" stroke-linecap="round" stroke-linejoin="round"/>
<path d="M17 20L14 17L17 14" stroke="#2760F4" stroke-width="1.5" stroke-linecap="round" stroke-linejoin="round"/>
<path d="M14 25H28" stroke="#2760F4" stroke-width="1.5" stroke-linecap="round" stroke-linejoin="round"/>
<path d="M25 28L28 25L25 22" stroke="#2760F4" stroke-width="1.5" stroke-linecap="round" stroke-linejoin="round"/>
<path d="M0.5 21C0.5 9.67816 9.67816 0.5 21 0.5C32.3218 0.5 41.5 9.67816 41.5 21C41.5 32.3218 32.3218 41.5 21 41.5C9.67816 41.5 0.5 32.3218 0.5 21Z" stroke="#D0D5DD"/>
</svg>
